# MagicaVoxel @ Ephtracy

# group
g Speaker

# material
mtllib Speaker.mtl
usemtl palette

# normals
vn -1 0 0
vn 1 0 0
vn 0 0 1
vn 0 0 -1
vn 0 -1 0
vn 0 1 0

# texcoords
vt 0.720703 0.5
vt 0.724609 0.5
vt 0.728516 0.5
vt 0.732422 0.5
vt 0.869141 0.5
vt 0.951172 0.5
vt 0.955078 0.5

# verts
v -7 1 3
v -7 1 -8
v -7 21 -8
v -7 21 -9
v -7 22 3
v -7 22 -9
v -6 1 -8
v -6 1 -9
v -6 21 -8
v -6 21 -9
v -4 6 4
v -4 6 3
v -4 10 4
v -4 10 3
v -3 5 4
v -3 5 3
v -3 6 4
v -3 6 3
v -3 10 4
v -3 10 3
v -3 11 4
v -3 11 3
v -3 15 4
v -3 15 3
v -3 18 -6
v -3 18 -7
v -3 18 -8
v -3 19 4
v -3 19 3
v -3 19 -6
v -3 19 -7
v -3 19 -8
v -2 4 4
v -2 4 3
v -2 4 -7
v -2 4 -8
v -2 5 4
v -2 5 3
v -2 6 -7
v -2 6 -8
v -2 11 4
v -2 11 3
v -2 12 4
v -2 12 3
v -2 14 4
v -2 14 3
v -2 15 4
v -2 15 3
v -2 19 4
v -2 19 3
v -2 20 4
v -2 20 3
v -1 7 5
v -1 7 4
v -1 9 5
v -1 9 4
v -1 16 5
v -1 16 4
v -1 18 5
v -1 18 4
v 0 4 -7
v 0 4 -8
v 0 6 -7
v 0 6 -8
v 0 18 -6
v 0 18 -7
v 0 18 -8
v 0 19 -6
v 0 19 -7
v 0 19 -8
v 5 3 -8
v 5 3 -9
v 5 20 -8
v 5 20 -9
v -5 3 -8
v -5 3 -9
v -5 20 -8
v -5 20 -9
v -4 18 -6
v -4 18 -7
v -4 18 -8
v -4 19 -6
v -4 19 -7
v -4 19 -8
v -3 4 -7
v -3 4 -8
v -3 6 -7
v -3 6 -8
v -1 4 -7
v -1 4 -8
v -1 6 -7
v -1 6 -8
v -1 18 -6
v -1 18 -7
v -1 18 -8
v -1 19 -6
v -1 19 -7
v -1 19 -8
v 1 7 5
v 1 7 4
v 1 9 5
v 1 9 4
v 1 16 5
v 1 16 4
v 1 18 5
v 1 18 4
v 2 4 4
v 2 4 3
v 2 5 4
v 2 5 3
v 2 11 4
v 2 11 3
v 2 12 4
v 2 12 3
v 2 14 4
v 2 14 3
v 2 15 4
v 2 15 3
v 2 19 4
v 2 19 3
v 2 20 4
v 2 20 3
v 3 5 4
v 3 5 3
v 3 6 4
v 3 6 3
v 3 10 4
v 3 10 3
v 3 11 4
v 3 11 3
v 3 15 4
v 3 15 3
v 3 19 4
v 3 19 3
v 4 6 4
v 4 6 3
v 4 10 4
v 4 10 3
v 6 1 -8
v 6 1 -9
v 6 21 -8
v 6 21 -9
v 7 1 3
v 7 1 -8
v 7 21 -8
v 7 21 -9
v 7 22 3
v 7 22 -9
v -1 7 5
v -1 9 5
v -1 16 5
v -1 18 5
v 1 7 5
v 1 9 5
v 1 16 5
v 1 18 5
v -4 6 4
v -4 10 4
v -3 5 4
v -3 6 4
v -3 10 4
v -3 11 4
v -3 15 4
v -3 19 4
v -2 4 4
v -2 5 4
v -2 11 4
v -2 12 4
v -2 14 4
v -2 15 4
v -2 19 4
v -2 20 4
v -1 7 4
v -1 9 4
v -1 16 4
v -1 18 4
v 1 7 4
v 1 9 4
v 1 16 4
v 1 18 4
v 2 4 4
v 2 5 4
v 2 11 4
v 2 12 4
v 2 14 4
v 2 15 4
v 2 19 4
v 2 20 4
v 3 5 4
v 3 6 4
v 3 10 4
v 3 11 4
v 3 15 4
v 3 19 4
v 4 6 4
v 4 10 4
v -7 1 3
v -7 22 3
v -6 2 3
v -6 21 3
v -4 6 3
v -4 10 3
v -3 5 3
v -3 6 3
v -3 10 3
v -3 11 3
v -3 15 3
v -3 19 3
v -2 4 3
v -2 5 3
v -2 11 3
v -2 12 3
v -2 14 3
v -2 15 3
v -2 19 3
v -2 20 3
v 2 4 3
v 2 5 3
v 2 11 3
v 2 12 3
v 2 14 3
v 2 15 3
v 2 19 3
v 2 20 3
v 3 5 3
v 3 6 3
v 3 10 3
v 3 11 3
v 3 15 3
v 3 19 3
v 4 6 3
v 4 10 3
v 6 2 3
v 6 21 3
v 7 1 3
v 7 22 3
v -4 18 -6
v -4 19 -6
v -3 18 -6
v -3 19 -6
v -1 18 -6
v -1 19 -6
v 0 18 -6
v 0 19 -6
v -3 4 -7
v -3 6 -7
v -2 4 -7
v -2 6 -7
v -1 4 -7
v -1 6 -7
v 0 4 -7
v 0 6 -7
v -7 1 -8
v -7 21 -8
v -6 1 -8
v -6 21 -8
v -5 3 -8
v -5 20 -8
v -4 18 -8
v -4 19 -8
v -3 4 -8
v -3 6 -8
v -3 18 -8
v -3 19 -8
v -2 4 -8
v -2 6 -8
v -1 4 -8
v -1 6 -8
v -1 18 -8
v -1 19 -8
v 0 4 -8
v 0 6 -8
v 0 18 -8
v 0 19 -8
v 5 3 -8
v 5 20 -8
v 6 1 -8
v 6 21 -8
v 7 1 -8
v 7 21 -8
v -7 21 -9
v -7 22 -9
v -6 1 -9
v -6 21 -9
v -5 3 -9
v -5 20 -9
v 5 3 -9
v 5 20 -9
v 6 1 -9
v 6 21 -9
v 7 21 -9
v 7 22 -9
v -7 1 3
v 7 1 3
v -6 1 2
v 6 1 2
v -7 1 -8
v -6 1 -8
v 6 1 -8
v 7 1 -8
v -6 1 -9
v 6 1 -9
v -2 4 4
v 2 4 4
v -2 4 3
v 2 4 3
v -3 5 4
v -2 5 4
v 2 5 4
v 3 5 4
v -3 5 3
v -2 5 3
v 2 5 3
v 3 5 3
v -4 6 4
v -3 6 4
v 3 6 4
v 4 6 4
v -4 6 3
v -3 6 3
v 3 6 3
v 4 6 3
v -3 6 -7
v -2 6 -7
v -1 6 -7
v 0 6 -7
v -3 6 -8
v -2 6 -8
v -1 6 -8
v 0 6 -8
v -1 7 5
v 1 7 5
v -1 7 4
v 1 7 4
v -2 14 4
v 2 14 4
v -2 14 3
v 2 14 3
v -3 15 4
v -2 15 4
v 2 15 4
v 3 15 4
v -3 15 3
v -2 15 3
v 2 15 3
v 3 15 3
v -1 16 5
v 1 16 5
v -1 16 4
v 1 16 4
v -4 19 -6
v -3 19 -6
v -1 19 -6
v 0 19 -6
v -4 19 -7
v -3 19 -7
v -1 19 -7
v 0 19 -7
v -4 19 -8
v -3 19 -8
v -1 19 -8
v 0 19 -8
v -5 20 -8
v 5 20 -8
v -5 20 -9
v 5 20 -9
v -7 21 -8
v -6 21 -8
v 6 21 -8
v 7 21 -8
v -7 21 -9
v -6 21 -9
v 6 21 -9
v 7 21 -9
v -5 3 -8
v 5 3 -8
v -5 3 -9
v 5 3 -9
v -3 4 -7
v -2 4 -7
v -1 4 -7
v 0 4 -7
v -3 4 -8
v -2 4 -8
v -1 4 -8
v 0 4 -8
v -1 9 5
v 1 9 5
v -1 9 4
v 1 9 4
v -4 10 4
v -3 10 4
v 3 10 4
v 4 10 4
v -4 10 3
v -3 10 3
v 3 10 3
v 4 10 3
v -3 11 4
v -2 11 4
v 2 11 4
v 3 11 4
v -3 11 3
v -2 11 3
v 2 11 3
v 3 11 3
v -2 12 4
v 2 12 4
v -2 12 3
v 2 12 3
v -1 18 5
v 1 18 5
v -1 18 4
v 1 18 4
v -4 18 -6
v -3 18 -6
v -1 18 -6
v 0 18 -6
v -4 18 -7
v -3 18 -7
v -1 18 -7
v 0 18 -7
v -4 18 -8
v -3 18 -8
v -1 18 -8
v 0 18 -8
v -3 19 4
v -2 19 4
v 2 19 4
v 3 19 4
v -3 19 3
v -2 19 3
v 2 19 3
v 3 19 3
v -2 20 4
v 2 20 4
v -2 20 3
v 2 20 3
v -7 22 3
v 7 22 3
v -6 22 2
v 6 22 2
v -6 22 -8
v 6 22 -8
v -7 22 -9
v 7 22 -9

# faces
f 3/6/1 2/6/1 1/6/1
f 5/6/1 3/6/1 1/6/1
f 5/6/1 4/6/1 3/6/1
f 6/6/1 4/6/1 5/6/1
f 9/1/1 8/1/1 7/1/1
f 10/1/1 8/1/1 9/1/1
f 13/2/1 12/2/1 11/2/1
f 14/2/1 12/2/1 13/2/1
f 17/2/1 16/2/1 15/2/1
f 18/2/1 16/2/1 17/2/1
f 21/2/1 20/2/1 19/2/1
f 22/2/1 20/2/1 21/2/1
f 28/2/1 24/2/1 23/2/1
f 29/2/1 24/2/1 28/2/1
f 30/4/1 26/4/1 25/4/1
f 31/7/1 27/7/1 26/7/1
f 31/4/1 26/4/1 30/4/1
f 32/7/1 27/7/1 31/7/1
f 37/2/1 34/2/1 33/2/1
f 38/2/1 34/2/1 37/2/1
f 39/7/1 36/7/1 35/7/1
f 40/7/1 36/7/1 39/7/1
f 43/2/1 42/2/1 41/2/1
f 44/2/1 42/2/1 43/2/1
f 47/2/1 46/2/1 45/2/1
f 48/2/1 46/2/1 47/2/1
f 51/2/1 50/2/1 49/2/1
f 52/2/1 50/2/1 51/2/1
f 55/1/1 54/1/1 53/1/1
f 56/1/1 54/1/1 55/1/1
f 59/1/1 58/1/1 57/1/1
f 60/1/1 58/1/1 59/1/1
f 63/7/1 62/7/1 61/7/1
f 64/7/1 62/7/1 63/7/1
f 68/3/1 66/3/1 65/3/1
f 69/7/1 67/7/1 66/7/1
f 69/3/1 66/3/1 68/3/1
f 70/7/1 67/7/1 69/7/1
f 73/1/1 72/1/1 71/1/1
f 74/1/1 72/1/1 73/1/1
f 75/1/2 76/1/2 77/1/2
f 77/1/2 76/1/2 78/1/2
f 79/4/2 80/4/2 82/4/2
f 80/7/2 81/7/2 83/7/2
f 82/4/2 80/4/2 83/4/2
f 83/7/2 81/7/2 84/7/2
f 85/7/2 86/7/2 87/7/2
f 87/7/2 86/7/2 88/7/2
f 89/7/2 90/7/2 91/7/2
f 91/7/2 90/7/2 92/7/2
f 93/3/2 94/3/2 96/3/2
f 94/7/2 95/7/2 97/7/2
f 96/3/2 94/3/2 97/3/2
f 97/7/2 95/7/2 98/7/2
f 99/1/2 100/1/2 101/1/2
f 101/1/2 100/1/2 102/1/2
f 103/1/2 104/1/2 105/1/2
f 105/1/2 104/1/2 106/1/2
f 107/2/2 108/2/2 109/2/2
f 109/2/2 108/2/2 110/2/2
f 111/2/2 112/2/2 113/2/2
f 113/2/2 112/2/2 114/2/2
f 115/2/2 116/2/2 117/2/2
f 117/2/2 116/2/2 118/2/2
f 119/2/2 120/2/2 121/2/2
f 121/2/2 120/2/2 122/2/2
f 123/2/2 124/2/2 125/2/2
f 125/2/2 124/2/2 126/2/2
f 127/2/2 128/2/2 129/2/2
f 129/2/2 128/2/2 130/2/2
f 131/2/2 132/2/2 133/2/2
f 133/2/2 132/2/2 134/2/2
f 135/2/2 136/2/2 137/2/2
f 137/2/2 136/2/2 138/2/2
f 139/1/2 140/1/2 141/1/2
f 141/1/2 140/1/2 142/1/2
f 143/6/2 144/6/2 145/6/2
f 143/6/2 145/6/2 147/6/2
f 145/6/2 146/6/2 147/6/2
f 147/6/2 146/6/2 148/6/2
f 153/1/3 150/1/3 149/1/3
f 154/1/3 150/1/3 153/1/3
f 155/1/3 152/1/3 151/1/3
f 156/1/3 152/1/3 155/1/3
f 160/2/3 158/2/3 157/2/3
f 161/2/3 158/2/3 160/2/3
f 166/2/3 160/2/3 159/2/3
f 166/2/3 161/2/3 160/2/3
f 166/2/3 162/2/3 161/2/3
f 167/2/3 162/2/3 166/2/3
f 170/2/3 164/2/3 163/2/3
f 171/2/3 164/2/3 170/2/3
f 173/2/3 168/2/3 167/2/3
f 173/2/3 166/2/3 165/2/3
f 173/2/3 167/2/3 166/2/3
f 174/2/3 168/2/3 173/2/3
f 175/2/3 172/2/3 171/2/3
f 175/2/3 171/2/3 170/2/3
f 175/2/3 170/2/3 169/2/3
f 176/2/3 172/2/3 175/2/3
f 177/2/3 173/2/3 165/2/3
f 178/2/3 168/2/3 174/2/3
f 179/2/3 175/2/3 169/2/3
f 180/2/3 172/2/3 176/2/3
f 181/2/3 177/2/3 165/2/3
f 181/2/3 178/2/3 177/2/3
f 182/2/3 178/2/3 181/2/3
f 183/2/3 168/2/3 178/2/3
f 183/2/3 178/2/3 182/2/3
f 184/2/3 168/2/3 183/2/3
f 185/2/3 180/2/3 179/2/3
f 185/2/3 179/2/3 169/2/3
f 186/2/3 180/2/3 185/2/3
f 187/2/3 172/2/3 180/2/3
f 187/2/3 180/2/3 186/2/3
f 188/2/3 172/2/3 187/2/3
f 189/2/3 183/2/3 182/2/3
f 190/2/3 183/2/3 189/2/3
f 191/2/3 183/2/3 190/2/3
f 192/2/3 183/2/3 191/2/3
f 193/2/3 187/2/3 186/2/3
f 194/2/3 187/2/3 193/2/3
f 195/2/3 191/2/3 190/2/3
f 196/2/3 191/2/3 195/2/3
f 199/6/3 198/6/3 197/6/3
f 200/6/3 198/6/3 199/6/3
f 201/1/3 200/1/3 199/1/3
f 202/1/3 200/1/3 201/1/3
f 203/1/3 201/1/3 199/1/3
f 204/1/3 201/1/3 203/1/3
f 205/1/3 200/1/3 202/1/3
f 206/1/3 200/1/3 205/1/3
f 207/1/3 200/1/3 206/1/3
f 208/1/3 200/1/3 207/1/3
f 209/1/3 203/1/3 199/1/3
f 210/1/3 203/1/3 209/1/3
f 211/1/3 207/1/3 206/1/3
f 212/1/3 207/1/3 211/1/3
f 213/1/3 207/1/3 212/1/3
f 214/1/3 207/1/3 213/1/3
f 215/1/3 200/1/3 208/1/3
f 216/1/3 200/1/3 215/1/3
f 217/1/3 209/1/3 199/1/3
f 220/1/3 213/1/3 212/1/3
f 221/1/3 213/1/3 220/1/3
f 224/1/3 200/1/3 216/1/3
f 225/1/3 218/1/3 217/1/3
f 228/1/3 222/1/3 221/1/3
f 228/1/3 220/1/3 219/1/3
f 228/1/3 221/1/3 220/1/3
f 229/1/3 222/1/3 228/1/3
f 230/1/3 224/1/3 223/1/3
f 231/1/3 226/1/3 225/1/3
f 232/1/3 230/1/3 229/1/3
f 232/1/3 229/1/3 228/1/3
f 232/1/3 228/1/3 227/1/3
f 233/6/3 199/6/3 197/6/3
f 233/1/3 232/1/3 231/1/3
f 233/1/3 231/1/3 225/1/3
f 233/1/3 217/1/3 199/1/3
f 233/1/3 225/1/3 217/1/3
f 234/1/3 230/1/3 232/1/3
f 234/1/3 232/1/3 233/1/3
f 234/6/3 198/6/3 200/6/3
f 234/1/3 224/1/3 230/1/3
f 234/1/3 200/1/3 224/1/3
f 235/6/3 233/6/3 197/6/3
f 235/6/3 234/6/3 233/6/3
f 236/6/3 198/6/3 234/6/3
f 236/6/3 234/6/3 235/6/3
f 237/4/4 238/4/4 239/4/4
f 239/4/4 238/4/4 240/4/4
f 241/3/4 242/3/4 243/3/4
f 243/3/4 242/3/4 244/3/4
f 245/5/4 246/5/4 247/5/4
f 247/5/4 246/5/4 248/5/4
f 249/5/4 250/5/4 251/5/4
f 251/5/4 250/5/4 252/5/4
f 253/6/4 254/6/4 255/6/4
f 255/6/4 254/6/4 256/6/4
f 257/7/4 258/7/4 259/7/4
f 259/7/4 258/7/4 260/7/4
f 257/7/4 259/7/4 261/7/4
f 261/7/4 259/7/4 262/7/4
f 262/7/4 259/7/4 263/7/4
f 260/7/4 258/7/4 264/7/4
f 257/7/4 261/7/4 265/7/4
f 262/7/4 263/7/4 266/7/4
f 263/7/4 264/7/4 266/7/4
f 257/7/4 265/7/4 267/7/4
f 265/7/4 266/7/4 267/7/4
f 266/7/4 264/7/4 268/7/4
f 267/7/4 266/7/4 268/7/4
f 268/7/4 264/7/4 269/7/4
f 264/7/4 258/7/4 270/7/4
f 269/7/4 264/7/4 270/7/4
f 257/7/4 267/7/4 271/7/4
f 268/7/4 269/7/4 272/7/4
f 272/7/4 269/7/4 273/7/4
f 270/7/4 258/7/4 274/7/4
f 272/7/4 273/7/4 275/7/4
f 273/7/4 274/7/4 275/7/4
f 257/7/4 271/7/4 275/7/4
f 271/7/4 272/7/4 275/7/4
f 274/7/4 258/7/4 276/7/4
f 275/7/4 274/7/4 276/7/4
f 277/6/4 278/6/4 279/6/4
f 279/6/4 278/6/4 280/6/4
f 281/6/4 282/6/4 284/6/4
f 283/1/4 284/1/4 285/1/4
f 285/1/4 284/1/4 286/1/4
f 283/1/4 285/1/4 287/1/4
f 286/1/4 284/1/4 288/1/4
f 283/1/4 287/1/4 289/1/4
f 287/1/4 288/1/4 289/1/4
f 284/6/4 282/6/4 290/6/4
f 289/1/4 288/1/4 290/1/4
f 288/1/4 284/1/4 290/1/4
f 290/6/4 282/6/4 291/6/4
f 291/6/4 282/6/4 292/6/4
f 295/6/5 294/6/5 293/6/5
f 296/6/5 294/6/5 295/6/5
f 297/6/5 295/6/5 293/6/5
f 298/1/5 296/1/5 295/1/5
f 298/6/5 295/6/5 297/6/5
f 299/6/5 294/6/5 296/6/5
f 299/1/5 296/1/5 298/1/5
f 300/6/5 294/6/5 299/6/5
f 301/1/5 299/1/5 298/1/5
f 302/1/5 299/1/5 301/1/5
f 305/2/5 304/2/5 303/2/5
f 306/2/5 304/2/5 305/2/5
f 311/2/5 308/2/5 307/2/5
f 312/2/5 308/2/5 311/2/5
f 313/2/5 310/2/5 309/2/5
f 314/2/5 310/2/5 313/2/5
f 319/2/5 316/2/5 315/2/5
f 320/2/5 316/2/5 319/2/5
f 321/2/5 318/2/5 317/2/5
f 322/2/5 318/2/5 321/2/5
f 327/7/5 324/7/5 323/7/5
f 328/7/5 324/7/5 327/7/5
f 329/7/5 326/7/5 325/7/5
f 330/7/5 326/7/5 329/7/5
f 333/1/5 332/1/5 331/1/5
f 334/1/5 332/1/5 333/1/5
f 337/2/5 336/2/5 335/2/5
f 338/2/5 336/2/5 337/2/5
f 343/2/5 340/2/5 339/2/5
f 344/2/5 340/2/5 343/2/5
f 345/2/5 342/2/5 341/2/5
f 346/2/5 342/2/5 345/2/5
f 349/1/5 348/1/5 347/1/5
f 350/1/5 348/1/5 349/1/5
f 355/4/5 352/4/5 351/4/5
f 356/4/5 352/4/5 355/4/5
f 357/3/5 354/3/5 353/3/5
f 358/3/5 354/3/5 357/3/5
f 359/7/5 356/7/5 355/7/5
f 360/7/5 356/7/5 359/7/5
f 361/7/5 358/7/5 357/7/5
f 362/7/5 358/7/5 361/7/5
f 365/1/5 364/1/5 363/1/5
f 366/1/5 364/1/5 365/1/5
f 371/6/5 368/6/5 367/6/5
f 372/6/5 368/6/5 371/6/5
f 373/6/5 370/6/5 369/6/5
f 374/6/5 370/6/5 373/6/5
f 375/1/6 376/1/6 377/1/6
f 377/1/6 376/1/6 378/1/6
f 379/7/6 380/7/6 383/7/6
f 383/7/6 380/7/6 384/7/6
f 381/7/6 382/7/6 385/7/6
f 385/7/6 382/7/6 386/7/6
f 387/1/6 388/1/6 389/1/6
f 389/1/6 388/1/6 390/1/6
f 391/2/6 392/2/6 395/2/6
f 395/2/6 392/2/6 396/2/6
f 393/2/6 394/2/6 397/2/6
f 397/2/6 394/2/6 398/2/6
f 399/2/6 400/2/6 403/2/6
f 403/2/6 400/2/6 404/2/6
f 401/2/6 402/2/6 405/2/6
f 405/2/6 402/2/6 406/2/6
f 407/2/6 408/2/6 409/2/6
f 409/2/6 408/2/6 410/2/6
f 411/1/6 412/1/6 413/1/6
f 413/1/6 412/1/6 414/1/6
f 415/4/6 416/4/6 419/4/6
f 419/4/6 416/4/6 420/4/6
f 417/3/6 418/3/6 421/3/6
f 421/3/6 418/3/6 422/3/6
f 419/7/6 420/7/6 423/7/6
f 423/7/6 420/7/6 424/7/6
f 421/7/6 422/7/6 425/7/6
f 425/7/6 422/7/6 426/7/6
f 427/2/6 428/2/6 431/2/6
f 431/2/6 428/2/6 432/2/6
f 429/2/6 430/2/6 433/2/6
f 433/2/6 430/2/6 434/2/6
f 435/2/6 436/2/6 437/2/6
f 437/2/6 436/2/6 438/2/6
f 439/6/6 440/6/6 441/6/6
f 441/6/6 440/6/6 442/6/6
f 439/6/6 441/6/6 443/6/6
f 441/1/6 442/1/6 443/1/6
f 442/6/6 440/6/6 444/6/6
f 443/1/6 442/1/6 444/1/6
f 439/6/6 443/6/6 445/6/6
f 443/6/6 444/6/6 445/6/6
f 444/6/6 440/6/6 446/6/6
f 445/6/6 444/6/6 446/6/6
