# MagicaVoxel @ Ephtracy

# group
g Mirror

# material
mtllib Mirror.mtl
usemtl palette

# normals
vn -1 0 0
vn 1 0 0
vn 0 0 1
vn 0 0 -1
vn 0 -1 0
vn 0 1 0

# texcoords
vt 0.787109 0.5
vt 0.791016 0.5
vt 0.939453 0.5

# verts
v -7 0 7
v -7 0 -7
v -7 1 5
v -7 1 -7
v -7 59 7
v -7 59 5
v -6 59 7
v -6 59 5
v -6 60 7
v -6 60 5
v 6 1 7
v 6 1 6
v 6 24 6
v 6 26 6
v 6 45 6
v 6 47 6
v 6 59 7
v 6 59 6
v -6 1 7
v -6 1 6
v -6 24 6
v -6 26 6
v -6 46 6
v -6 47 6
v -6 59 7
v -6 59 6
v 6 59 7
v 6 59 5
v 6 60 7
v 6 60 5
v 7 0 7
v 7 0 -7
v 7 1 5
v 7 1 -7
v 7 59 7
v 7 59 5
v -7 0 7
v -7 59 7
v -6 1 7
v -6 59 7
v -6 60 7
v 6 1 7
v 6 59 7
v 6 60 7
v 7 0 7
v 7 59 7
v -6 1 6
v -6 24 6
v -6 26 6
v -6 46 6
v -6 47 6
v -6 59 6
v -5 21 6
v -5 24 6
v -5 26 6
v -5 44 6
v -5 46 6
v -5 47 6
v -4 18 6
v -4 21 6
v -4 24 6
v -4 42 6
v -4 44 6
v -4 46 6
v -3 15 6
v -3 18 6
v -3 21 6
v -3 40 6
v -3 42 6
v -3 44 6
v -2 12 6
v -2 15 6
v -2 18 6
v -2 38 6
v -2 40 6
v -2 42 6
v -1 9 6
v -1 12 6
v -1 15 6
v -1 36 6
v -1 38 6
v -1 40 6
v -1 57 6
v -1 59 6
v 0 6 6
v 0 9 6
v 0 12 6
v 0 34 6
v 0 36 6
v 0 38 6
v 0 55 6
v 0 57 6
v 0 59 6
v 1 3 6
v 1 6 6
v 1 9 6
v 1 32 6
v 1 34 6
v 1 36 6
v 1 53 6
v 1 55 6
v 1 57 6
v 2 1 6
v 2 3 6
v 2 6 6
v 2 30 6
v 2 32 6
v 2 34 6
v 2 51 6
v 2 53 6
v 2 55 6
v 3 1 6
v 3 3 6
v 3 28 6
v 3 30 6
v 3 32 6
v 3 49 6
v 3 51 6
v 3 53 6
v 4 26 6
v 4 28 6
v 4 30 6
v 4 47 6
v 4 49 6
v 4 51 6
v 5 24 6
v 5 26 6
v 5 28 6
v 5 45 6
v 5 47 6
v 5 49 6
v 6 1 6
v 6 24 6
v 6 26 6
v 6 45 6
v 6 47 6
v 6 59 6
v -7 1 5
v -7 59 5
v -6 1 5
v -6 24 5
v -6 26 5
v -6 46 5
v -6 47 5
v -6 59 5
v -6 60 5
v -5 21 5
v -5 24 5
v -5 26 5
v -5 44 5
v -5 46 5
v -5 47 5
v -4 18 5
v -4 21 5
v -4 24 5
v -4 42 5
v -4 44 5
v -4 46 5
v -3 15 5
v -3 18 5
v -3 21 5
v -3 40 5
v -3 42 5
v -3 44 5
v -2 12 5
v -2 15 5
v -2 18 5
v -2 38 5
v -2 40 5
v -2 42 5
v -1 9 5
v -1 12 5
v -1 15 5
v -1 36 5
v -1 38 5
v -1 40 5
v -1 57 5
v -1 59 5
v 0 6 5
v 0 9 5
v 0 12 5
v 0 34 5
v 0 36 5
v 0 38 5
v 0 55 5
v 0 57 5
v 0 59 5
v 1 3 5
v 1 6 5
v 1 9 5
v 1 32 5
v 1 34 5
v 1 36 5
v 1 53 5
v 1 55 5
v 1 57 5
v 2 1 5
v 2 3 5
v 2 6 5
v 2 30 5
v 2 32 5
v 2 34 5
v 2 51 5
v 2 53 5
v 2 55 5
v 3 1 5
v 3 3 5
v 3 28 5
v 3 30 5
v 3 32 5
v 3 49 5
v 3 51 5
v 3 53 5
v 4 26 5
v 4 28 5
v 4 30 5
v 4 47 5
v 4 49 5
v 4 51 5
v 5 24 5
v 5 26 5
v 5 28 5
v 5 45 5
v 5 47 5
v 5 49 5
v 6 1 5
v 6 24 5
v 6 26 5
v 6 45 5
v 6 47 5
v 6 59 5
v 6 60 5
v 7 1 5
v 7 59 5
v -7 0 -7
v -7 1 -7
v 7 0 -7
v 7 1 -7
v -7 0 7
v 7 0 7
v -7 0 -7
v 7 0 -7
v -6 59 7
v 6 59 7
v -6 59 6
v -1 59 6
v 0 59 6
v 6 59 6
v -6 1 7
v 6 1 7
v -6 1 6
v 2 1 6
v 3 1 6
v 6 1 6
v -7 1 5
v -6 1 5
v 2 1 5
v 3 1 5
v 6 1 5
v 7 1 5
v -7 1 -7
v 7 1 -7
v -7 59 7
v -6 59 7
v 6 59 7
v 7 59 7
v -7 59 5
v -6 59 5
v 6 59 5
v 7 59 5
v -6 60 7
v 6 60 7
v -6 60 5
v 6 60 5

# faces
f 3/3/1 2/3/1 1/3/1
f 4/3/1 2/3/1 3/3/1
f 5/3/1 3/3/1 1/3/1
f 6/3/1 3/3/1 5/3/1
f 9/3/1 8/3/1 7/3/1
f 10/3/1 8/3/1 9/3/1
f 13/3/1 12/3/1 11/3/1
f 14/3/1 13/3/1 11/3/1
f 15/3/1 14/3/1 11/3/1
f 16/3/1 15/3/1 11/3/1
f 17/3/1 16/3/1 11/3/1
f 18/3/1 16/3/1 17/3/1
f 19/3/2 20/3/2 21/3/2
f 19/3/2 21/3/2 22/3/2
f 19/3/2 22/3/2 23/3/2
f 19/3/2 23/3/2 24/3/2
f 19/3/2 24/3/2 25/3/2
f 25/3/2 24/3/2 26/3/2
f 27/3/2 28/3/2 29/3/2
f 29/3/2 28/3/2 30/3/2
f 31/3/2 32/3/2 33/3/2
f 33/3/2 32/3/2 34/3/2
f 31/3/2 33/3/2 35/3/2
f 35/3/2 33/3/2 36/3/2
f 39/3/3 38/3/3 37/3/3
f 40/3/3 38/3/3 39/3/3
f 42/3/3 39/3/3 37/3/3
f 43/3/3 41/3/3 40/3/3
f 44/3/3 41/3/3 43/3/3
f 45/3/3 42/3/3 37/3/3
f 45/3/3 43/3/3 42/3/3
f 46/3/3 43/3/3 45/3/3
f 53/1/3 48/1/3 47/1/3
f 54/2/3 49/2/3 48/2/3
f 54/1/3 48/1/3 53/1/3
f 55/1/3 50/1/3 49/1/3
f 55/2/3 49/2/3 54/2/3
f 56/1/3 50/1/3 55/1/3
f 57/2/3 51/2/3 50/2/3
f 57/1/3 50/1/3 56/1/3
f 58/1/3 52/1/3 51/1/3
f 58/2/3 51/2/3 57/2/3
f 59/1/3 53/1/3 47/1/3
f 60/2/3 54/2/3 53/2/3
f 60/1/3 53/1/3 59/1/3
f 61/1/3 56/1/3 55/1/3
f 61/2/3 54/2/3 60/2/3
f 61/1/3 55/1/3 54/1/3
f 62/1/3 56/1/3 61/1/3
f 63/2/3 57/2/3 56/2/3
f 63/1/3 56/1/3 62/1/3
f 64/1/3 58/1/3 57/1/3
f 64/2/3 57/2/3 63/2/3
f 65/1/3 59/1/3 47/1/3
f 66/2/3 60/2/3 59/2/3
f 66/1/3 59/1/3 65/1/3
f 67/1/3 62/1/3 61/1/3
f 67/2/3 60/2/3 66/2/3
f 67/1/3 61/1/3 60/1/3
f 68/1/3 62/1/3 67/1/3
f 69/2/3 63/2/3 62/2/3
f 69/1/3 62/1/3 68/1/3
f 70/1/3 64/1/3 63/1/3
f 70/2/3 63/2/3 69/2/3
f 71/1/3 65/1/3 47/1/3
f 72/2/3 66/2/3 65/2/3
f 72/1/3 65/1/3 71/1/3
f 73/1/3 68/1/3 67/1/3
f 73/2/3 66/2/3 72/2/3
f 73/1/3 67/1/3 66/1/3
f 74/1/3 68/1/3 73/1/3
f 75/2/3 69/2/3 68/2/3
f 75/1/3 68/1/3 74/1/3
f 76/1/3 70/1/3 69/1/3
f 76/2/3 69/2/3 75/2/3
f 77/1/3 71/1/3 47/1/3
f 78/2/3 72/2/3 71/2/3
f 78/1/3 71/1/3 77/1/3
f 79/1/3 74/1/3 73/1/3
f 79/2/3 72/2/3 78/2/3
f 79/1/3 73/1/3 72/1/3
f 80/1/3 74/1/3 79/1/3
f 81/2/3 75/2/3 74/2/3
f 81/1/3 74/1/3 80/1/3
f 82/1/3 76/1/3 75/1/3
f 82/2/3 75/2/3 81/2/3
f 83/1/3 70/1/3 76/1/3
f 83/1/3 76/1/3 82/1/3
f 83/1/3 52/1/3 58/1/3
f 83/1/3 58/1/3 64/1/3
f 83/1/3 64/1/3 70/1/3
f 84/1/3 52/1/3 83/1/3
f 85/1/3 77/1/3 47/1/3
f 86/2/3 78/2/3 77/2/3
f 86/1/3 77/1/3 85/1/3
f 87/1/3 79/1/3 78/1/3
f 87/2/3 78/2/3 86/2/3
f 87/1/3 80/1/3 79/1/3
f 88/1/3 80/1/3 87/1/3
f 89/2/3 81/2/3 80/2/3
f 89/1/3 80/1/3 88/1/3
f 90/1/3 82/1/3 81/1/3
f 90/2/3 81/2/3 89/2/3
f 90/1/3 83/1/3 82/1/3
f 91/1/3 83/1/3 90/1/3
f 92/2/3 84/2/3 83/2/3
f 92/1/3 83/1/3 91/1/3
f 93/2/3 84/2/3 92/2/3
f 94/1/3 85/1/3 47/1/3
f 95/2/3 86/2/3 85/2/3
f 95/1/3 85/1/3 94/1/3
f 96/1/3 88/1/3 87/1/3
f 96/2/3 86/2/3 95/2/3
f 96/1/3 87/1/3 86/1/3
f 97/1/3 88/1/3 96/1/3
f 98/2/3 89/2/3 88/2/3
f 98/1/3 88/1/3 97/1/3
f 99/1/3 91/1/3 90/1/3
f 99/2/3 89/2/3 98/2/3
f 99/1/3 90/1/3 89/1/3
f 100/1/3 91/1/3 99/1/3
f 101/2/3 92/2/3 91/2/3
f 101/1/3 91/1/3 100/1/3
f 102/1/3 93/1/3 92/1/3
f 102/2/3 92/2/3 101/2/3
f 103/1/3 94/1/3 47/1/3
f 104/2/3 95/2/3 94/2/3
f 104/1/3 94/1/3 103/1/3
f 105/1/3 97/1/3 96/1/3
f 105/2/3 95/2/3 104/2/3
f 105/1/3 96/1/3 95/1/3
f 106/1/3 97/1/3 105/1/3
f 107/2/3 98/2/3 97/2/3
f 107/1/3 97/1/3 106/1/3
f 108/1/3 100/1/3 99/1/3
f 108/2/3 98/2/3 107/2/3
f 108/1/3 99/1/3 98/1/3
f 109/1/3 100/1/3 108/1/3
f 110/2/3 101/2/3 100/2/3
f 110/1/3 100/1/3 109/1/3
f 111/1/3 102/1/3 101/1/3
f 111/2/3 101/2/3 110/2/3
f 112/2/3 104/2/3 103/2/3
f 113/1/3 106/1/3 105/1/3
f 113/2/3 104/2/3 112/2/3
f 113/1/3 105/1/3 104/1/3
f 114/1/3 106/1/3 113/1/3
f 115/2/3 107/2/3 106/2/3
f 115/1/3 106/1/3 114/1/3
f 116/1/3 109/1/3 108/1/3
f 116/2/3 107/2/3 115/2/3
f 116/1/3 108/1/3 107/1/3
f 117/1/3 109/1/3 116/1/3
f 118/2/3 110/2/3 109/2/3
f 118/1/3 109/1/3 117/1/3
f 119/1/3 111/1/3 110/1/3
f 119/2/3 110/2/3 118/2/3
f 120/1/3 114/1/3 113/1/3
f 120/1/3 113/1/3 112/1/3
f 121/2/3 115/2/3 114/2/3
f 121/1/3 114/1/3 120/1/3
f 122/1/3 117/1/3 116/1/3
f 122/2/3 115/2/3 121/2/3
f 122/1/3 116/1/3 115/1/3
f 123/1/3 117/1/3 122/1/3
f 124/2/3 118/2/3 117/2/3
f 124/1/3 117/1/3 123/1/3
f 125/1/3 119/1/3 118/1/3
f 125/2/3 118/2/3 124/2/3
f 126/1/3 120/1/3 112/1/3
f 127/2/3 121/2/3 120/2/3
f 127/1/3 120/1/3 126/1/3
f 128/1/3 123/1/3 122/1/3
f 128/2/3 121/2/3 127/2/3
f 128/1/3 122/1/3 121/1/3
f 129/1/3 123/1/3 128/1/3
f 130/2/3 124/2/3 123/2/3
f 130/1/3 123/1/3 129/1/3
f 131/1/3 125/1/3 124/1/3
f 131/2/3 124/2/3 130/2/3
f 132/1/3 126/1/3 112/1/3
f 133/2/3 127/2/3 126/2/3
f 133/1/3 126/1/3 132/1/3
f 134/1/3 129/1/3 128/1/3
f 134/2/3 127/2/3 133/2/3
f 134/1/3 128/1/3 127/1/3
f 135/2/3 130/2/3 129/2/3
f 135/1/3 129/1/3 134/1/3
f 136/1/3 131/1/3 130/1/3
f 136/2/3 130/2/3 135/2/3
f 137/1/3 102/1/3 111/1/3
f 137/1/3 131/1/3 136/1/3
f 137/1/3 93/1/3 102/1/3
f 137/1/3 119/1/3 125/1/3
f 137/1/3 125/1/3 131/1/3
f 137/1/3 111/1/3 119/1/3
f 138/3/4 139/3/4 140/3/4
f 140/3/4 139/3/4 141/3/4
f 141/3/4 139/3/4 142/3/4
f 142/3/4 139/3/4 143/3/4
f 143/3/4 139/3/4 144/3/4
f 144/3/4 139/3/4 145/3/4
f 140/1/4 141/1/4 147/1/4
f 141/2/4 142/2/4 148/2/4
f 147/1/4 141/1/4 148/1/4
f 142/1/4 143/1/4 149/1/4
f 148/2/4 142/2/4 149/2/4
f 149/1/4 143/1/4 150/1/4
f 143/2/4 144/2/4 151/2/4
f 150/1/4 143/1/4 151/1/4
f 144/1/4 145/1/4 152/1/4
f 151/2/4 144/2/4 152/2/4
f 140/1/4 147/1/4 153/1/4
f 147/2/4 148/2/4 154/2/4
f 153/1/4 147/1/4 154/1/4
f 149/1/4 150/1/4 155/1/4
f 154/2/4 148/2/4 155/2/4
f 148/1/4 149/1/4 155/1/4
f 155/1/4 150/1/4 156/1/4
f 150/2/4 151/2/4 157/2/4
f 156/1/4 150/1/4 157/1/4
f 151/1/4 152/1/4 158/1/4
f 157/2/4 151/2/4 158/2/4
f 140/1/4 153/1/4 159/1/4
f 153/2/4 154/2/4 160/2/4
f 159/1/4 153/1/4 160/1/4
f 155/1/4 156/1/4 161/1/4
f 160/2/4 154/2/4 161/2/4
f 154/1/4 155/1/4 161/1/4
f 161/1/4 156/1/4 162/1/4
f 156/2/4 157/2/4 163/2/4
f 162/1/4 156/1/4 163/1/4
f 157/1/4 158/1/4 164/1/4
f 163/2/4 157/2/4 164/2/4
f 140/1/4 159/1/4 165/1/4
f 159/2/4 160/2/4 166/2/4
f 165/1/4 159/1/4 166/1/4
f 161/1/4 162/1/4 167/1/4
f 166/2/4 160/2/4 167/2/4
f 160/1/4 161/1/4 167/1/4
f 167/1/4 162/1/4 168/1/4
f 162/2/4 163/2/4 169/2/4
f 168/1/4 162/1/4 169/1/4
f 163/1/4 164/1/4 170/1/4
f 169/2/4 163/2/4 170/2/4
f 140/1/4 165/1/4 171/1/4
f 165/2/4 166/2/4 172/2/4
f 171/1/4 165/1/4 172/1/4
f 167/1/4 168/1/4 173/1/4
f 172/2/4 166/2/4 173/2/4
f 166/1/4 167/1/4 173/1/4
f 173/1/4 168/1/4 174/1/4
f 168/2/4 169/2/4 175/2/4
f 174/1/4 168/1/4 175/1/4
f 169/1/4 170/1/4 176/1/4
f 175/2/4 169/2/4 176/2/4
f 152/1/4 145/1/4 177/1/4
f 176/1/4 170/1/4 177/1/4
f 158/1/4 152/1/4 177/1/4
f 164/1/4 158/1/4 177/1/4
f 170/1/4 164/1/4 177/1/4
f 145/3/4 146/3/4 178/3/4
f 177/1/4 145/1/4 178/1/4
f 140/1/4 171/1/4 179/1/4
f 171/2/4 172/2/4 180/2/4
f 179/1/4 171/1/4 180/1/4
f 172/1/4 173/1/4 181/1/4
f 180/2/4 172/2/4 181/2/4
f 173/1/4 174/1/4 181/1/4
f 181/1/4 174/1/4 182/1/4
f 174/2/4 175/2/4 183/2/4
f 182/1/4 174/1/4 183/1/4
f 176/1/4 177/1/4 184/1/4
f 183/2/4 175/2/4 184/2/4
f 175/1/4 176/1/4 184/1/4
f 184/1/4 177/1/4 185/1/4
f 177/2/4 178/2/4 186/2/4
f 185/1/4 177/1/4 186/1/4
f 178/3/4 146/3/4 187/3/4
f 186/2/4 178/2/4 187/2/4
f 140/1/4 179/1/4 188/1/4
f 179/2/4 180/2/4 189/2/4
f 188/1/4 179/1/4 189/1/4
f 180/1/4 181/1/4 190/1/4
f 189/2/4 180/2/4 190/2/4
f 181/1/4 182/1/4 190/1/4
f 190/1/4 182/1/4 191/1/4
f 182/2/4 183/2/4 192/2/4
f 191/1/4 182/1/4 192/1/4
f 184/1/4 185/1/4 193/1/4
f 192/2/4 183/2/4 193/2/4
f 183/1/4 184/1/4 193/1/4
f 193/1/4 185/1/4 194/1/4
f 185/2/4 186/2/4 195/2/4
f 194/1/4 185/1/4 195/1/4
f 186/1/4 187/1/4 196/1/4
f 195/2/4 186/2/4 196/2/4
f 140/1/4 188/1/4 197/1/4
f 188/2/4 189/2/4 198/2/4
f 197/1/4 188/1/4 198/1/4
f 190/1/4 191/1/4 199/1/4
f 198/2/4 189/2/4 199/2/4
f 189/1/4 190/1/4 199/1/4
f 199/1/4 191/1/4 200/1/4
f 191/2/4 192/2/4 201/2/4
f 200/1/4 191/1/4 201/1/4
f 193/1/4 194/1/4 202/1/4
f 201/2/4 192/2/4 202/2/4
f 192/1/4 193/1/4 202/1/4
f 202/1/4 194/1/4 203/1/4
f 194/2/4 195/2/4 204/2/4
f 203/1/4 194/1/4 204/1/4
f 195/1/4 196/1/4 205/1/4
f 204/2/4 195/2/4 205/2/4
f 197/2/4 198/2/4 206/2/4
f 199/1/4 200/1/4 207/1/4
f 206/2/4 198/2/4 207/2/4
f 198/1/4 199/1/4 207/1/4
f 207/1/4 200/1/4 208/1/4
f 200/2/4 201/2/4 209/2/4
f 208/1/4 200/1/4 209/1/4
f 202/1/4 203/1/4 210/1/4
f 209/2/4 201/2/4 210/2/4
f 201/1/4 202/1/4 210/1/4
f 210/1/4 203/1/4 211/1/4
f 203/2/4 204/2/4 212/2/4
f 211/1/4 203/1/4 212/1/4
f 204/1/4 205/1/4 213/1/4
f 212/2/4 204/2/4 213/2/4
f 207/1/4 208/1/4 214/1/4
f 206/1/4 207/1/4 214/1/4
f 208/2/4 209/2/4 215/2/4
f 214/1/4 208/1/4 215/1/4
f 210/1/4 211/1/4 216/1/4
f 215/2/4 209/2/4 216/2/4
f 209/1/4 210/1/4 216/1/4
f 216/1/4 211/1/4 217/1/4
f 211/2/4 212/2/4 218/2/4
f 217/1/4 211/1/4 218/1/4
f 212/1/4 213/1/4 219/1/4
f 218/2/4 212/2/4 219/2/4
f 206/1/4 214/1/4 220/1/4
f 214/2/4 215/2/4 221/2/4
f 220/1/4 214/1/4 221/1/4
f 216/1/4 217/1/4 222/1/4
f 221/2/4 215/2/4 222/2/4
f 215/1/4 216/1/4 222/1/4
f 222/1/4 217/1/4 223/1/4
f 217/2/4 218/2/4 224/2/4
f 223/1/4 217/1/4 224/1/4
f 218/1/4 219/1/4 225/1/4
f 224/2/4 218/2/4 225/2/4
f 206/1/4 220/1/4 226/1/4
f 220/2/4 221/2/4 227/2/4
f 226/1/4 220/1/4 227/1/4
f 222/1/4 223/1/4 228/1/4
f 227/2/4 221/2/4 228/2/4
f 221/1/4 222/1/4 228/1/4
f 223/2/4 224/2/4 229/2/4
f 228/1/4 223/1/4 229/1/4
f 224/1/4 225/1/4 230/1/4
f 229/2/4 224/2/4 230/2/4
f 205/1/4 196/1/4 231/1/4
f 230/1/4 225/1/4 231/1/4
f 196/1/4 187/1/4 231/1/4
f 219/1/4 213/1/4 231/1/4
f 213/1/4 205/1/4 231/1/4
f 187/3/4 146/3/4 231/3/4
f 225/1/4 219/1/4 231/1/4
f 231/3/4 146/3/4 232/3/4
f 229/3/4 230/3/4 233/3/4
f 228/3/4 229/3/4 233/3/4
f 230/3/4 231/3/4 233/3/4
f 227/3/4 228/3/4 233/3/4
f 226/3/4 227/3/4 233/3/4
f 233/3/4 231/3/4 234/3/4
f 235/3/4 236/3/4 237/3/4
f 237/3/4 236/3/4 238/3/4
f 241/3/5 240/3/5 239/3/5
f 242/3/5 240/3/5 241/3/5
f 245/3/5 244/3/5 243/3/5
f 246/3/5 244/3/5 245/3/5
f 247/3/5 244/3/5 246/3/5
f 248/3/5 244/3/5 247/3/5
f 249/3/6 250/3/6 251/3/6
f 251/3/6 250/3/6 252/3/6
f 252/3/6 250/3/6 253/3/6
f 253/3/6 250/3/6 254/3/6
f 258/3/6 259/3/6 261/3/6
f 259/3/6 260/3/6 261/3/6
f 257/3/6 258/3/6 261/3/6
f 256/3/6 257/3/6 261/3/6
f 255/3/6 256/3/6 261/3/6
f 261/3/6 260/3/6 262/3/6
f 263/3/6 264/3/6 267/3/6
f 267/3/6 264/3/6 268/3/6
f 265/3/6 266/3/6 269/3/6
f 269/3/6 266/3/6 270/3/6
f 271/3/6 272/3/6 273/3/6
f 273/3/6 272/3/6 274/3/6
