# MagicaVoxel @ Ephtracy

# group
g Bed

# material
mtllib Bed.mtl
usemtl palette

# normals
vn -1 0 0
vn 1 0 0
vn 0 0 1
vn 0 0 -1
vn 0 -1 0
vn 0 1 0

# texcoords
vt 0.794922 0.5
vt 0.798828 0.5
vt 0.869141 0.5
vt 0.943359 0.5

# verts
v -30 0 18
v -30 0 14
v -30 0 -14
v -30 0 -18
v -30 8 14
v -30 8 -14
v -30 25 15
v -30 25 -15
v -30 26 16
v -30 26 15
v -30 26 -15
v -30 26 -16
v -30 27 16
v -30 27 -16
v -30 28 18
v -30 28 -18
v -18 4 19
v -18 4 18
v -18 4 -18
v -18 4 -19
v -18 8 18
v -18 8 -18
v -18 12 18
v -18 12 -18
v -18 15 18
v -18 15 -18
v -18 16 19
v -18 16 -19
v 26 0 18
v 26 0 14
v 26 0 -14
v 26 0 -18
v 26 4 18
v 26 4 -18
v 26 8 18
v 26 8 14
v 26 8 -14
v 26 8 -18
v 26 11 14
v 26 11 -14
v -27 15 18
v -27 15 -18
v -27 25 15
v -27 25 -15
v -27 26 16
v -27 26 15
v -27 26 -15
v -27 26 -16
v -27 27 16
v -27 27 -16
v -27 28 18
v -27 28 -18
v -26 0 18
v -26 0 14
v -26 0 -14
v -26 0 -18
v -26 8 18
v -26 8 14
v -26 8 -14
v -26 8 -18
v -26 10 14
v -26 10 -14
v -26 11 14
v -26 11 -14
v 29 4 19
v 29 4 18
v 29 4 -18
v 29 4 -19
v 29 12 18
v 29 12 -18
v 29 15 18
v 29 15 -18
v 29 16 19
v 29 16 -19
v 30 0 18
v 30 0 14
v 30 0 -14
v 30 0 -18
v 30 8 14
v 30 8 -14
v 30 12 18
v 30 12 -18
v 30 15 18
v 30 15 -18
v -18 4 19
v -18 16 19
v -12 4 19
v -12 16 19
v 29 4 19
v 29 16 19
v -30 0 18
v -30 28 18
v -27 12 18
v -27 15 18
v -27 28 18
v -26 0 18
v -26 8 18
v -18 8 18
v -18 12 18
v -18 15 18
v 26 0 18
v 26 4 18
v 29 4 18
v 29 12 18
v 29 15 18
v 30 0 18
v 30 12 18
v 30 15 18
v -30 0 -14
v -30 8 -14
v -26 0 -14
v -26 8 -14
v -26 10 -14
v -26 11 -14
v -18 10 -14
v -18 11 -14
v 26 0 -14
v 26 8 -14
v 26 11 -14
v 30 0 -14
v 30 8 -14
v -30 25 -15
v -30 26 -15
v -27 25 -15
v -27 26 -15
v -30 26 -16
v -30 27 -16
v -27 26 -16
v -27 27 -16
v -18 4 -18
v -18 8 -18
v -12 4 -18
v -12 8 -18
v 26 4 -18
v 26 8 -18
v -18 4 18
v -18 8 18
v -12 4 18
v -12 8 18
v 26 4 18
v 26 8 18
v -30 26 16
v -30 27 16
v -27 26 16
v -27 27 16
v -30 25 15
v -30 26 15
v -27 25 15
v -27 26 15
v -30 0 14
v -30 8 14
v -26 0 14
v -26 8 14
v -26 10 14
v -26 11 14
v -18 10 14
v -18 11 14
v 26 0 14
v 26 8 14
v 26 11 14
v 30 0 14
v 30 8 14
v -30 0 -18
v -30 28 -18
v -27 12 -18
v -27 15 -18
v -27 28 -18
v -26 0 -18
v -26 8 -18
v -18 8 -18
v -18 12 -18
v -18 15 -18
v 26 0 -18
v 26 4 -18
v 29 4 -18
v 29 12 -18
v 29 15 -18
v 30 0 -18
v 30 12 -18
v 30 15 -18
v -18 4 -19
v -18 16 -19
v -12 4 -19
v -12 16 -19
v 29 4 -19
v 29 16 -19
v -30 0 18
v -26 0 18
v 26 0 18
v 30 0 18
v -30 0 14
v -26 0 14
v 26 0 14
v 30 0 14
v -30 0 -14
v -26 0 -14
v 26 0 -14
v 30 0 -14
v -30 0 -18
v -26 0 -18
v 26 0 -18
v 30 0 -18
v -18 4 19
v -12 4 19
v 29 4 19
v -18 4 18
v -12 4 18
v 26 4 18
v 29 4 18
v -18 4 -18
v -12 4 -18
v 26 4 -18
v 29 4 -18
v -18 4 -19
v -12 4 -19
v 29 4 -19
v -26 8 18
v -18 8 18
v -12 8 18
v 26 8 18
v -30 8 14
v -26 8 14
v 26 8 14
v 30 8 14
v -30 8 -14
v -26 8 -14
v 26 8 -14
v 30 8 -14
v -26 8 -18
v -18 8 -18
v -12 8 -18
v 26 8 -18
v -26 11 14
v -18 11 14
v 26 11 14
v -26 11 -14
v -18 11 -14
v 26 11 -14
v -30 27 16
v -27 27 16
v -30 27 -16
v -27 27 -16
v -27 15 18
v -18 15 18
v 29 15 18
v 30 15 18
v -27 15 -18
v -18 15 -18
v 29 15 -18
v 30 15 -18
v -18 16 19
v -12 16 19
v 29 16 19
v -18 16 -19
v -12 16 -19
v 29 16 -19
v -30 25 15
v -27 25 15
v -30 25 -15
v -27 25 -15
v -30 26 16
v -27 26 16
v -30 26 15
v -27 26 15
v -30 26 -15
v -27 26 -15
v -30 26 -16
v -27 26 -16
v -30 28 18
v -27 28 18
v -30 28 -18
v -27 28 -18

# faces
f 5/4/1 2/4/1 1/4/1
f 6/4/1 4/4/1 3/4/1
f 7/4/1 5/4/1 1/4/1
f 7/4/1 6/4/1 5/4/1
f 8/4/1 4/4/1 6/4/1
f 8/4/1 6/4/1 7/4/1
f 9/4/1 7/4/1 1/4/1
f 10/4/1 7/4/1 9/4/1
f 11/4/1 4/4/1 8/4/1
f 12/4/1 4/4/1 11/4/1
f 13/4/1 9/4/1 1/4/1
f 14/4/1 4/4/1 12/4/1
f 15/4/1 13/4/1 1/4/1
f 15/4/1 14/4/1 13/4/1
f 16/4/1 4/4/1 14/4/1
f 16/4/1 14/4/1 15/4/1
f 21/2/1 18/2/1 17/2/1
f 22/2/1 20/2/1 19/2/1
f 23/2/1 21/2/1 17/2/1
f 24/2/1 20/2/1 22/2/1
f 25/2/1 23/2/1 17/2/1
f 26/2/1 20/2/1 24/2/1
f 27/2/1 25/2/1 17/2/1
f 27/2/1 26/2/1 25/2/1
f 28/2/1 20/2/1 26/2/1
f 28/2/1 26/2/1 27/2/1
f 33/4/1 30/4/1 29/4/1
f 34/4/1 32/4/1 31/4/1
f 35/4/1 30/4/1 33/4/1
f 36/4/1 30/4/1 35/4/1
f 37/4/1 34/4/1 31/4/1
f 38/4/1 34/4/1 37/4/1
f 39/4/1 37/4/1 36/4/1
f 40/4/1 37/4/1 39/4/1
f 41/4/2 42/4/2 43/4/2
f 43/4/2 42/4/2 44/4/2
f 41/4/2 43/4/2 45/4/2
f 45/4/2 43/4/2 46/4/2
f 44/4/2 42/4/2 47/4/2
f 47/4/2 42/4/2 48/4/2
f 41/4/2 45/4/2 49/4/2
f 48/4/2 42/4/2 50/4/2
f 41/4/2 49/4/2 51/4/2
f 49/4/2 50/4/2 51/4/2
f 50/4/2 42/4/2 52/4/2
f 51/4/2 50/4/2 52/4/2
f 53/4/2 54/4/2 57/4/2
f 57/4/2 54/4/2 58/4/2
f 55/4/2 56/4/2 59/4/2
f 59/4/2 56/4/2 60/4/2
f 58/4/2 59/4/2 61/4/2
f 61/4/2 59/4/2 62/4/2
f 61/3/2 62/3/2 63/3/2
f 63/3/2 62/3/2 64/3/2
f 65/1/2 66/1/2 69/1/2
f 67/1/2 68/1/2 70/1/2
f 65/1/2 69/1/2 71/1/2
f 70/1/2 68/1/2 72/1/2
f 65/1/2 71/1/2 73/1/2
f 71/1/2 72/1/2 73/1/2
f 72/1/2 68/1/2 74/1/2
f 73/1/2 72/1/2 74/1/2
f 75/4/2 76/4/2 79/4/2
f 77/4/2 78/4/2 80/4/2
f 75/4/2 79/4/2 81/4/2
f 79/4/2 80/4/2 81/4/2
f 80/4/2 78/4/2 82/4/2
f 81/4/2 80/4/2 82/4/2
f 81/3/2 82/3/2 83/3/2
f 83/3/2 82/3/2 84/3/2
f 87/2/3 86/2/3 85/2/3
f 88/2/3 86/2/3 87/2/3
f 89/1/3 88/1/3 87/1/3
f 90/1/3 88/1/3 89/1/3
f 93/4/3 92/4/3 91/4/3
f 94/4/3 92/4/3 93/4/3
f 95/4/3 92/4/3 94/4/3
f 96/4/3 93/4/3 91/4/3
f 97/4/3 93/4/3 96/4/3
f 98/4/3 93/4/3 97/4/3
f 99/3/3 94/3/3 93/3/3
f 99/4/3 93/4/3 98/4/3
f 100/3/3 94/3/3 99/3/3
f 103/4/3 102/4/3 101/4/3
f 106/4/3 103/4/3 101/4/3
f 106/4/3 104/4/3 103/4/3
f 107/3/3 105/3/3 104/3/3
f 107/4/3 104/4/3 106/4/3
f 108/3/3 105/3/3 107/3/3
f 111/4/3 110/4/3 109/4/3
f 112/4/3 110/4/3 111/4/3
f 115/3/3 114/3/3 113/3/3
f 115/4/3 113/4/3 112/4/3
f 116/3/3 114/3/3 115/3/3
f 118/4/3 115/4/3 112/4/3
f 118/4/3 116/4/3 115/4/3
f 119/4/3 116/4/3 118/4/3
f 120/4/3 118/4/3 117/4/3
f 121/4/3 118/4/3 120/4/3
f 124/4/3 123/4/3 122/4/3
f 125/4/3 123/4/3 124/4/3
f 128/4/3 127/4/3 126/4/3
f 129/4/3 127/4/3 128/4/3
f 132/2/3 131/2/3 130/2/3
f 133/2/3 131/2/3 132/2/3
f 134/1/3 133/1/3 132/1/3
f 135/1/3 133/1/3 134/1/3
f 136/2/4 137/2/4 138/2/4
f 138/2/4 137/2/4 139/2/4
f 138/1/4 139/1/4 140/1/4
f 140/1/4 139/1/4 141/1/4
f 142/4/4 143/4/4 144/4/4
f 144/4/4 143/4/4 145/4/4
f 146/4/4 147/4/4 148/4/4
f 148/4/4 147/4/4 149/4/4
f 150/4/4 151/4/4 152/4/4
f 152/4/4 151/4/4 153/4/4
f 154/3/4 155/3/4 156/3/4
f 153/4/4 154/4/4 156/4/4
f 156/3/4 155/3/4 157/3/4
f 153/4/4 156/4/4 159/4/4
f 156/4/4 157/4/4 159/4/4
f 159/4/4 157/4/4 160/4/4
f 158/4/4 159/4/4 161/4/4
f 161/4/4 159/4/4 162/4/4
f 163/4/4 164/4/4 165/4/4
f 165/4/4 164/4/4 166/4/4
f 166/4/4 164/4/4 167/4/4
f 163/4/4 165/4/4 168/4/4
f 168/4/4 165/4/4 169/4/4
f 169/4/4 165/4/4 170/4/4
f 165/3/4 166/3/4 171/3/4
f 170/4/4 165/4/4 171/4/4
f 171/3/4 166/3/4 172/3/4
f 173/4/4 174/4/4 175/4/4
f 173/4/4 175/4/4 178/4/4
f 175/4/4 176/4/4 178/4/4
f 176/3/4 177/3/4 179/3/4
f 178/4/4 176/4/4 179/4/4
f 179/3/4 177/3/4 180/3/4
f 181/2/4 182/2/4 183/2/4
f 183/2/4 182/2/4 184/2/4
f 183/1/4 184/1/4 185/1/4
f 185/1/4 184/1/4 186/1/4
f 191/4/5 188/4/5 187/4/5
f 192/4/5 188/4/5 191/4/5
f 193/4/5 190/4/5 189/4/5
f 194/4/5 190/4/5 193/4/5
f 199/4/5 196/4/5 195/4/5
f 200/4/5 196/4/5 199/4/5
f 201/4/5 198/4/5 197/4/5
f 202/4/5 198/4/5 201/4/5
f 206/2/5 204/2/5 203/2/5
f 207/1/5 205/1/5 204/1/5
f 207/2/5 204/2/5 206/2/5
f 208/1/5 205/1/5 207/1/5
f 209/1/5 205/1/5 208/1/5
f 214/2/5 211/2/5 210/2/5
f 215/1/5 213/1/5 212/1/5
f 215/2/5 211/2/5 214/2/5
f 215/1/5 212/1/5 211/1/5
f 216/1/5 213/1/5 215/1/5
f 222/4/5 218/4/5 217/4/5
f 222/4/5 220/4/5 219/4/5
f 222/4/5 219/4/5 218/4/5
f 223/4/5 220/4/5 222/4/5
f 225/4/5 222/4/5 221/4/5
f 226/4/5 222/4/5 225/4/5
f 227/4/5 224/4/5 223/4/5
f 228/4/5 224/4/5 227/4/5
f 229/4/5 227/4/5 226/4/5
f 230/4/5 227/4/5 229/4/5
f 231/4/5 227/4/5 230/4/5
f 232/4/5 227/4/5 231/4/5
f 236/3/5 234/3/5 233/3/5
f 237/4/5 235/4/5 234/4/5
f 237/3/5 234/3/5 236/3/5
f 238/4/5 235/4/5 237/4/5
f 241/4/5 240/4/5 239/4/5
f 242/4/5 240/4/5 241/4/5
f 243/3/6 244/3/6 247/3/6
f 247/3/6 244/3/6 248/3/6
f 245/3/6 246/3/6 249/3/6
f 249/3/6 246/3/6 250/3/6
f 251/2/6 252/2/6 254/2/6
f 252/1/6 253/1/6 255/1/6
f 254/2/6 252/2/6 255/2/6
f 255/1/6 253/1/6 256/1/6
f 257/4/6 258/4/6 259/4/6
f 259/4/6 258/4/6 260/4/6
f 261/4/6 262/4/6 263/4/6
f 263/4/6 262/4/6 264/4/6
f 265/4/6 266/4/6 267/4/6
f 267/4/6 266/4/6 268/4/6
f 269/4/6 270/4/6 271/4/6
f 271/4/6 270/4/6 272/4/6
